<svg width="305" height="607" viewBox="0 0 305 607" fill="none" xmlns="http://www.w3.org/2000/svg">
<ellipse cx="158" cy="566.661" rx="147" ry="40.339" fill="#CEC3B2"/>
<ellipse cx="158" cy="52.339" rx="147" ry="40.339" fill="#CEC3B2"/>
<rect x="11" y="52.339" width="294" height="514.322" fill="#CEC3B2"/>
<ellipse cx="146.5" cy="551" rx="144.5" ry="40" fill="#E9E1D5"/>
<rect x="2" y="41" width="289" height="510" fill="#E9E1D6"/>
<path d="M291 448C291 470.091 226.305 488 146.5 488C66.6949 488 2 470.091 2 448" stroke="#EEE6DA"/>
<path d="M291 551C291 573.091 226.305 591 146.5 591C66.6949 591 2 573.091 2 551" stroke="#EEE6DA"/>
<path d="M292 438C292 460.091 227.305 478 147.5 478C67.6949 478 3 460.091 3 438" stroke="#EEE6DA"/>
<path d="M292 542C292 564.091 227.305 582 147.5 582C67.6949 582 3 564.091 3 542" stroke="#EEE6DA"/>
<path d="M292 534C292 556.091 227.305 574 147.5 574C67.6949 574 3 556.091 3 534" stroke="#EEE6DA"/>
<path d="M292 524C292 546.091 227.305 564 147.5 564C67.6949 564 3 546.091 3 524" stroke="#EEE6DA"/>
<path d="M292 514C292 536.091 227.305 554 147.5 554C67.6949 554 3 536.091 3 514" stroke="#EEE6DA"/>
<path d="M292 508C292 530.091 227.305 548 147.5 548C67.6949 548 3 530.091 3 508" stroke="#EEE6DA"/>
<path d="M291 498C291 520.091 226.305 538 146.5 538C66.6949 538 2 520.091 2 498" stroke="#EEE6DA"/>
<path d="M292 491C292 513.091 227.305 531 147.5 531C67.6949 531 3 513.091 3 491" stroke="#EEE6DA"/>
<path d="M292 484C292 506.091 227.305 524 147.5 524C67.6949 524 3 506.091 3 484" stroke="#EEE6DA"/>
<path d="M290 474C290 496.091 225.305 514 145.5 514C65.6949 514 1 496.091 1 474" stroke="#EEE6DA"/>
<path d="M290 468C290 490.091 225.305 508 145.5 508C65.6949 508 1 490.091 1 468" stroke="#EEE6DA"/>
<path d="M290 458C290 480.091 225.305 498 145.5 498C65.6949 498 1 480.091 1 458" stroke="#EEE6DA"/>
<path d="M291 67C291 89.0914 226.305 107 146.5 107C66.6949 107 2 89.0914 2 67" stroke="#EEE6DA"/>
<path d="M291 45C291 67.0914 226.305 85 146.5 85C66.6949 85 2 67.0914 2 45" stroke="#EEE6DA"/>
<path d="M292 56C292 78.0914 227.305 96 147.5 96C67.6949 96 3 78.0914 3 56" stroke="#EEE6DA"/>
<path d="M292 161C292 183.091 227.305 201 147.5 201C67.6949 201 3 183.091 3 161" stroke="#EEE6DA"/>
<path d="M292 153C292 175.091 227.305 193 147.5 193C67.6949 193 3 175.091 3 153" stroke="#EEE6DA"/>
<path d="M292 143C292 165.091 227.305 183 147.5 183C67.6949 183 3 165.091 3 143" stroke="#EEE6DA"/>
<path d="M292 133C292 155.091 227.305 173 147.5 173C67.6949 173 3 155.091 3 133" stroke="#EEE6DA"/>
<path d="M292 127C292 149.091 227.305 167 147.5 167C67.6949 167 3 149.091 3 127" stroke="#EEE6DA"/>
<path d="M291 117C291 139.091 226.305 157 146.5 157C66.6949 157 2 139.091 2 117" stroke="#EEE6DA"/>
<path d="M292 110C292 132.091 227.305 150 147.5 150C67.6949 150 3 132.091 3 110" stroke="#EEE6DA"/>
<path d="M292 103C292 125.091 227.305 143 147.5 143C67.6949 143 3 125.091 3 103" stroke="#EEE6DA"/>
<path d="M290 93C290 115.091 225.305 133 145.5 133C65.6949 133 1 115.091 1 93" stroke="#EEE6DA"/>
<path d="M290 87C290 109.091 225.305 127 145.5 127C65.6949 127 1 109.091 1 87" stroke="#EEE6DA"/>
<path d="M290 107C290 129.091 225.305 147 145.5 147C65.6949 147 1 129.091 1 107" stroke="#EEE6DA"/>
<path d="M13.5 566L13.5 38M38 577L38 38M26 573L26 38M62 583L62 38M54 581L54 38M76 585.5V38M98 588.5V38M90 587.5V77.5M109.5 589.5V38M119.5 590V38M125.5 590.5V38M134 590.5V38M148.5 590.5V38M3 555L3 38" stroke="#EEE6DA" stroke-width="2"/>
<path d="M168.5 590.5V45M193 588.5V45M181 590V45M217 585.5V45M209 587V45M231 583.5V45M253 578.5V45M245 580V45M264.5 573.5V45M274.5 570V45M280.5 566V45M289 557.5V45M158 590.5V45" stroke="#EEE6DA" stroke-width="2"/>
<path d="M293 41C293 63.6437 227.634 82 147 82C66.3664 82 1 63.6437 1 41C1 18.3563 66.3664 0 147 0C227.634 0 293 18.3563 293 41Z" fill="#EEE6DA"/>
<path d="M290.5 39.5C290.5 44.18 286.696 49.0835 278.88 53.8686C271.161 58.5938 259.974 62.9206 246.24 66.585C218.792 73.908 181.503 78.5 142.307 78.5C103.107 78.5 67.6732 74.0322 42.0866 66.8402C29.2829 63.2413 19.0304 58.9837 12.0134 54.3205C4.93914 49.6193 1.5 44.75 1.5 40C1.5 35.25 4.93914 30.3807 12.0134 25.6795C19.0304 21.0163 29.2829 16.7587 42.0866 13.1598C67.6732 5.96783 103.107 1.5 142.307 1.5C181.51 1.5 218.803 5.8433 246.252 12.9183C259.988 16.4586 271.174 20.6619 278.891 25.2944C286.705 29.9855 290.5 34.8273 290.5 39.5Z" stroke="#E9E1D5" stroke-opacity="0.58" stroke-width="3"/>
<path d="M265 39.5C265 43.4604 262.061 47.4741 256.144 51.3114C250.269 55.1205 241.703 58.5888 231.028 61.5166C209.692 67.3682 180.16 71 147.5 71C114.84 71 85.3083 67.3682 63.9723 61.5166C53.2973 58.5888 44.7307 55.1205 38.8564 51.3114C32.9385 47.4741 30 43.4604 30 39.5C30 35.5396 32.9385 31.5259 38.8564 27.6886C44.7307 23.8795 53.2973 20.4112 63.9723 17.4834C85.3083 11.6318 114.84 8 147.5 8C180.16 8 209.692 11.6318 231.028 17.4834C241.703 20.4112 250.269 23.8795 256.144 27.6886C262.061 31.5259 265 35.5396 265 39.5Z" stroke="#E9E1D5" stroke-opacity="0.58" stroke-width="2"/>
<path d="M255 39.5C255 43.042 252.347 46.6613 246.933 50.1415C241.564 53.5926 233.729 56.7381 223.959 59.3947C204.432 64.7039 177.399 68 147.5 68C117.601 68 90.5683 64.7039 71.0413 59.3947C61.2706 56.7381 53.4358 53.5926 48.0672 50.1415C42.6531 46.6613 40 43.042 40 39.5C40 35.958 42.6531 32.3387 48.0672 28.8585C53.4358 25.4074 61.2706 22.2619 71.0413 19.6053C90.5683 14.2961 117.601 11 147.5 11C177.399 11 204.432 14.2961 223.959 19.6053C233.729 22.2619 241.564 25.4074 246.933 28.8585C252.347 32.3387 255 35.958 255 39.5Z" stroke="#E9E1D5" stroke-opacity="0.58" stroke-width="2"/>
<path d="M245 39C245 42.2008 242.621 45.491 237.716 48.6704C232.853 51.8216 225.751 54.6973 216.886 57.1275C199.169 61.9838 174.637 65 147.5 65C120.363 65 95.831 61.9838 78.1143 57.1275C69.2489 54.6973 62.1468 51.8216 57.2845 48.6704C52.3785 45.491 50 42.2008 50 39C50 35.7992 52.3785 32.509 57.2845 29.3296C62.1468 26.1784 69.2489 23.3027 78.1143 20.8725C95.831 16.0162 120.363 13 147.5 13C174.637 13 199.169 16.0162 216.886 20.8725C225.751 23.3027 232.853 26.1784 237.716 29.3296C242.621 32.509 245 35.7992 245 39Z" stroke="#E9E1D5" stroke-opacity="0.58" stroke-width="2"/>
<path d="M237 39C237 41.9283 234.84 44.9554 230.341 47.8939C225.884 50.805 219.368 53.4648 211.227 55.7138C194.959 60.2078 172.427 63 147.5 63C122.573 63 100.041 60.2078 83.7731 55.7138C75.6319 53.4648 69.116 50.805 64.6588 47.8939C60.1596 44.9554 58 41.9283 58 39C58 36.0717 60.1596 33.0446 64.6588 30.1061C69.116 27.195 75.6319 24.5352 83.7731 22.2862C100.041 17.7922 122.573 15 147.5 15C172.427 15 194.959 17.7922 211.227 22.2862C219.368 24.5352 225.884 27.195 230.341 30.1061C234.84 33.0446 237 36.0717 237 39Z" stroke="#E9E1D5" stroke-opacity="0.58" stroke-width="2"/>
<path d="M227 39C227 41.509 225.127 44.1416 221.131 46.7235C217.18 49.2767 211.395 51.6139 204.158 53.5917C189.699 57.5434 169.667 60 147.5 60C125.333 60 105.301 57.5434 90.8415 53.5917C83.6046 51.6139 77.8204 49.2767 73.8688 46.7235C69.8729 44.1416 68 41.509 68 39C68 36.491 69.8729 33.8584 73.8688 31.2765C77.8204 28.7233 83.6046 26.3861 90.8415 24.4083C105.301 20.4566 125.333 18 147.5 18C169.667 18 189.699 20.4566 204.158 24.4083C211.395 26.3861 217.18 28.7233 221.131 31.2765C225.127 33.8584 227 36.491 227 39Z" stroke="#E9E1D5" stroke-opacity="0.58" stroke-width="2"/>
<path d="M216 39C216 41.0949 214.435 43.3329 210.996 45.5558C207.601 47.7501 202.622 49.7641 196.38 51.4704C183.911 54.8792 166.629 57 147.5 57C128.371 57 111.089 54.8792 98.6198 51.4704C92.3782 49.7641 87.3994 47.7501 84.0045 45.5558C80.5653 43.3329 79 41.0949 79 39C79 36.9051 80.5653 34.6671 84.0045 32.4442C87.3994 30.2499 92.3782 28.2359 98.6198 26.5296C111.089 23.1208 128.371 21 147.5 21C166.629 21 183.911 23.1208 196.38 26.5296C202.622 28.2359 207.601 30.2499 210.996 32.4442C214.435 34.6671 216 36.9051 216 39Z" stroke="#E9E1D5" stroke-opacity="0.58" stroke-width="2"/>
<path d="M207 39.5C207 41.2486 205.688 43.1578 202.704 45.0821C199.764 46.9775 195.444 48.7223 190.017 50.2025C179.176 53.159 164.144 55 147.5 55C130.856 55 115.824 53.159 104.983 50.2025C99.5557 48.7223 95.2359 46.9775 92.2963 45.0821C89.312 43.1578 88 41.2486 88 39.5C88 37.7514 89.312 35.8422 92.2963 33.9179C95.2359 32.0225 99.5557 30.2777 104.983 28.7975C115.824 25.841 130.856 24 147.5 24C164.144 24 179.176 25.841 190.017 28.7975C195.444 30.2777 199.764 32.0225 202.704 33.9179C205.688 35.8422 207 37.7514 207 39.5Z" stroke="#E9E1D5" stroke-opacity="0.58" stroke-width="2"/>
<path d="M197 39C197 40.4065 195.95 41.9868 193.448 43.6106C190.989 45.2063 187.365 46.6813 182.798 47.9352C173.677 50.4389 161.02 52 147 52C132.98 52 120.323 50.4389 111.202 47.9352C106.635 46.6813 103.011 45.2063 100.552 43.6106C98.0503 41.9868 97 40.4065 97 39C97 37.5935 98.0503 36.0132 100.552 34.3894C103.011 32.7937 106.635 31.3187 111.202 30.0648C120.323 27.5611 132.98 26 147 26C161.02 26 173.677 27.5611 182.798 30.0648C187.365 31.3187 190.989 32.7937 193.448 34.3894C195.95 36.0132 197 37.5935 197 39Z" stroke="#E9E1D5" stroke-opacity="0.58" stroke-width="2"/>
<path d="M180 38.5C180 39.2936 179.414 40.2818 177.777 41.3635C176.179 42.419 173.801 43.4082 170.773 44.2544C164.73 45.9428 156.325 47 147 47C137.675 47 129.27 45.9428 123.227 44.2544C120.199 43.4082 117.821 42.419 116.223 41.3635C114.586 40.2818 114 39.2936 114 38.5C114 37.7064 114.586 36.7182 116.223 35.6365C117.821 34.581 120.199 33.5918 123.227 32.7456C129.27 31.0572 137.675 30 147 30C156.325 30 164.73 31.0572 170.773 32.7456C173.801 33.5918 176.179 34.581 177.777 35.6365C179.414 36.7182 180 37.7064 180 38.5Z" stroke="#E9E1D5" stroke-opacity="0.58" stroke-width="2"/>
<path d="M171 38.5C171 42.0899 160.255 45 147 45C133.745 45 123 42.0899 123 38.5C123 34.9101 133.745 32 147 32C160.255 32 171 34.9101 171 38.5Z" fill="#E9E1D5"/>
<path d="M170 38.5C170 38.8645 169.714 39.4585 168.575 40.1879C167.482 40.8877 165.834 41.5554 163.709 42.131C159.473 43.2782 153.565 44 147 44C140.435 44 134.527 43.2782 130.291 42.131C128.166 41.5554 126.518 40.8877 125.425 40.1879C124.286 39.4585 124 38.8645 124 38.5C124 38.1355 124.286 37.5415 125.425 36.8121C126.518 36.1123 128.166 35.4446 130.291 34.869C134.527 33.7218 140.435 33 147 33C153.565 33 159.473 33.7218 163.709 34.869C165.834 35.4446 167.482 36.1123 168.575 36.8121C169.714 37.5415 170 38.1355 170 38.5Z" stroke="#E9E1D5" stroke-opacity="0.58" stroke-width="2"/>
<path d="M188 38.5C188 39.5601 187.203 40.8116 185.156 42.1369C183.153 43.4337 180.188 44.6395 176.434 45.6672C168.942 47.7187 158.535 49 147 49C135.465 49 125.058 47.7187 117.566 45.6672C113.812 44.6395 110.847 43.4337 108.844 42.1369C106.797 40.8116 106 39.5601 106 38.5C106 37.4399 106.797 36.1884 108.844 34.8631C110.847 33.5663 113.812 32.3605 117.566 31.3328C125.058 29.2813 135.465 28 147 28C158.535 28 168.942 29.2813 176.434 31.3328C180.188 32.3605 183.153 33.5663 185.156 34.8631C187.203 36.1884 188 37.4399 188 38.5Z" stroke="#E9E1D5" stroke-opacity="0.58" stroke-width="2"/>
<path d="M279 40.5C279 45.0184 275.69 49.5581 269.117 53.8714C262.586 58.1579 253.068 62.0565 241.217 65.3458C217.53 71.9206 184.749 76 148.5 76C112.251 76 79.4703 71.9206 55.7829 65.3458C43.9322 62.0565 34.4144 58.1579 27.8826 53.8714C21.3099 49.5581 18 45.0184 18 40.5C18 35.9816 21.3099 31.4419 27.8826 27.1286C34.4144 22.8421 43.9322 18.9435 55.7829 15.6542C79.4703 9.07936 112.251 5 148.5 5C184.749 5 217.53 9.07936 241.217 15.6542C253.068 18.9435 262.586 22.8421 269.117 27.1286C275.69 31.4419 279 35.9816 279 40.5Z" stroke="#E9E1D5" stroke-opacity="0.58" stroke-width="2"/>
<path d="M2 180.5C2 180.5 25.1409 192.328 61 199.5C87.1597 204.732 123.395 208.575 148 208C171.176 207.458 203.196 205.605 227.5 201C265.283 193.841 291 180.5 291 180.5V444C291 444 262.792 458.342 227.5 466.845C200.666 473.31 173.737 474.5 148 474.5C122.928 474.5 86.3148 473.1 61 466.845C26.1508 458.233 2 449.5 2 449.5V180.5Z" fill="#F4F2F0"/>
<rect x="119" y="273" width="56" height="116" fill="#AD0000"/>
<rect x="89" y="359" width="56" height="116" transform="rotate(-90 89 359)" fill="#AD0000"/>
<path d="M230 74.7072L238 72.9977L246 71.0387L253.5 69.0797L261.5 66.631L269 63.6925L276.5 60.2643L283 56.3462L286.5 53.4077L289 50.959L291 49L290.5 557.762L288 561.264L284.5 564.766L277 570.268L261 577.272L244.5 581.774L230 584V74.7072Z" fill="#C4C4C4" fill-opacity="0.3"/>
<path d="M20 65L18 64L15.5 62.5L12.5 60.5L9.49999 58.5L6.04097 55.2643L3.99999 52.5L1.99999 47.5V554.651L3 557L5 560L7 562L8 563L11.5 566L15.5 568.5L20 571V65Z" fill="#C4C4C4" fill-opacity="0.11"/>
<path d="M111 100.473V81.4408L134.876 82.4317H152.798L170.5 81.9362L182.793 80.9453L196.562 79.9545L205.413 78.9636L211.314 77.9727L217.707 76.9818L224.099 75.9909L230 75L229.572 583.945L224.091 584.953L217.32 586.067L209.145 587.473L200.676 588.48L182.741 589.992L167.795 591H151.852H134.914L111 589.992V100.473Z" fill="#C4C4C4" fill-opacity="0.2"/>
</svg>
