<svg width="909" height="855" viewBox="0 0 909 855" fill="none" xmlns="http://www.w3.org/2000/svg">
<rect x="19" y="37" width="868" height="818" rx="50" fill="#828B9B"/>
<rect y="19" width="859" height="808" rx="50" fill="#A1ABBE"/>
<rect x="14" y="34" width="832" height="782" rx="50" fill="#DEE1E8"/>
<rect x="25" y="47" width="810" height="752" rx="50" fill="#BBC4D6"/>
<rect x="54" y="73" width="752" height="700" rx="50" fill="#ABB4C5"/>
<path d="M61.5 54.5L65.5 48L61 49L49.8687 52.7143L42.0909 59.1429L36.5 64.5L32.899 70.5714L29.5 75.5L25.8283 83.4286L25 89V95.5L32 92.5L39.2626 92L46.5 95.5L50.5 101.286L53 106.5L55 114.5L60.5 102.5L68 94L73 88.5L89.5 75.5L78 74.5L72 72.5L67 68L63.5 64.5L61 59.5L61.5 54.5Z" fill="#ABB4C5"/>
<path d="M67 793.5L72 799L65.1783 798.5L53 794.535L44.5 789L38.5 783L33.695 777.249L30.5 772L27 764L25.5 757.5L25 750.436L32.7054 753.663L40.6999 754.2L48.6667 750.436L53.0698 744.213L55.8217 738.605L58.0233 730L64.0775 742.907L72.3333 752.049L77.8372 757.965L96 771.948L83.3411 773.023L76.7364 775.174L71.2326 780.014L67.3798 783.779L66 788L67 793.5Z" fill="#ABB4C5"/>
<path d="M793 793.5L788 799L794.822 798.5L807 794.535L815.5 789L821.5 783L826.305 777.249L829.5 772L833 764L834.5 757.5L835 750.436L827.295 753.663L819.3 754.2L811.333 750.436L806.93 744.213L804.178 738.605L801.977 730L795.922 742.907L787.667 752.049L782.163 757.965L764 771.948L776.659 773.023L783.264 775.174L788.767 780.014L792.62 783.779L794 788L793 793.5Z" fill="#ABB4C5"/>
<path d="M797.085 54.4511L792.93 48L797.605 48.9925L809.167 52.6788L817.247 59.0591L823.054 64.3759L826.795 70.4017L830.326 75.2932L834.14 83.1622L835 88.6917V95.1429L827.729 92.1654L820.185 91.6692L812.667 95.1429L808.512 100.885L805.915 106.06L803.837 114L798.124 102.09L790.333 93.6541L785.14 88.1955L768 75.2932L779.946 74.3008L786.178 72.3158L791.372 67.8496L795.008 64.3759L797.605 59.4135L797.085 54.4511Z" fill="#ABB4C5"/>
<path d="M54 375L476 73.0559L638.453 73.056L54.0001 439.5L54 375Z" fill="#C3CBDB" fill-opacity="0.31"/>
<path d="M56.2298 547.927L806 173.5L806 403L56.2298 612.427L56.2298 547.927Z" fill="#C3CBDB" fill-opacity="0.22"/>
</svg>
