<svg width="909" height="855" viewBox="0 0 909 855" fill="none" xmlns="http://www.w3.org/2000/svg">
<path d="M19 86.427C19 58.8128 41.3858 36.427 69 36.427H837C864.614 36.427 887 58.8128 887 86.427V804.427C887 832.041 864.614 854.427 837 854.427H69C41.3857 854.427 19 832.041 19 804.427V86.427Z" fill="#9B8282"/>
<rect y="18.427" width="859" height="808" rx="50" fill="#BEA1A1"/>
<rect x="14" y="33.427" width="832" height="782" rx="50" fill="#E8DEDE"/>
<rect x="25" y="46.427" width="810" height="752" rx="50" fill="#D6BBBB"/>
<rect x="54" y="72.427" width="752" height="700" rx="50" fill="#C5ABAB"/>
<path d="M61.5 53.927L65.5 47.427L61 48.427L49.8687 52.1413L42.0909 58.5699L36.5 63.927L32.899 69.9984L29.5 74.927L25.8283 82.8556L25 88.427V94.927L32 91.927L39.2626 91.427L46.5 94.927L50.5 100.713L53 105.927L55 113.927L60.5 101.927L68 93.427L73 87.927L89.5 74.927L78 73.927L72 71.927L67 67.427L63.5 63.927L61 58.927L61.5 53.927Z" fill="#C5ABAB"/>
<path d="M67 792.927L72 798.427L65.1783 797.927L53 793.962L44.5 788.427L38.5 782.427L33.695 776.676L30.5 771.427L27 763.427L25.5 756.927L25 749.863L32.7054 753.09L40.6999 753.627L48.6667 749.863L53.0698 743.64L55.8217 738.032L58.0233 729.427L64.0775 742.334L72.3333 751.476L77.8372 757.392L96 771.374L83.3411 772.45L76.7364 774.601L71.2326 779.441L67.3798 783.206L66 787.427L67 792.927Z" fill="#C5ABAB"/>
<path d="M793 792.927L788 798.427L794.822 797.927L807 793.962L815.5 788.427L821.5 782.427L826.305 776.676L829.5 771.427L833 763.427L834.5 756.927L835 749.863L827.295 753.09L819.3 753.627L811.333 749.863L806.93 743.64L804.178 738.032L801.977 729.427L795.922 742.334L787.667 751.476L782.163 757.392L764 771.374L776.659 772.45L783.264 774.601L788.767 779.441L792.62 783.206L794 787.427L793 792.927Z" fill="#C5ABAB"/>
<path d="M797.085 53.8781L792.93 47.427L797.605 48.4195L809.167 52.1058L817.247 58.4861L823.054 63.8029L826.795 69.8287L830.326 74.7202L834.14 82.5892L835 88.1187V94.5699L827.729 91.5924L820.185 91.0962L812.667 94.5699L808.512 100.312L805.915 105.487L803.837 113.427L798.124 101.517L790.333 93.0811L785.14 87.6225L768 74.7202L779.946 73.7278L786.178 71.7428L791.372 67.2766L795.008 63.8029L797.605 58.8405L797.085 53.8781Z" fill="#C5ABAB"/>
<path d="M54 374.427L476 72.483L638.453 72.483L54.0001 438.927L54 374.427Z" fill="#DBC3C3" fill-opacity="0.31"/>
<path d="M56.2298 547.354L806 172.927L806 402.427L56.2298 611.854L56.2298 547.354Z" fill="#DBC3C3" fill-opacity="0.22"/>
</svg>
