<svg width="313" height="481" viewBox="0 0 313 481" fill="none" xmlns="http://www.w3.org/2000/svg">
<rect x="10.5374" y="4.95874" width="301.865" height="476.041" rx="100" fill="#8B8F95"/>
<rect width="304.344" height="474.182" rx="100" fill="#D8DEE7"/>
<circle cx="87.7081" cy="105.064" r="50.5174" fill="#010101" fill-opacity="0.22"/>
<circle cx="83.9251" cy="377.481" r="44.8931" fill="#262626"/>
<ellipse cx="81.4244" cy="374.992" rx="44.4656" ry="40.8904" transform="rotate(-45.1351 81.4244 374.992)" fill="#353535"/>
<path d="M46.7975 401.422L107.691 340.241C107.691 340.241 110.565 342.466 112.542 344.433C114.518 346.4 116.892 349.946 116.892 349.946C93.2167 373.733 80.2214 386.79 56.5462 410.577C56.5462 410.577 54.4856 409.709 51.3793 406.618C48.273 403.526 46.7975 401.422 46.7975 401.422Z" fill="#464646"/>
<circle cx="225.873" cy="377.481" r="44.8931" fill="#262626"/>
<ellipse cx="223.372" cy="374.992" rx="44.4656" ry="40.8904" transform="rotate(-45.1351 223.372 374.992)" fill="#353535"/>
<path d="M188.745 401.422L249.639 340.241C249.639 340.241 252.513 342.466 254.489 344.433C256.466 346.4 258.84 349.946 258.84 349.946C235.165 373.733 222.169 386.79 198.494 410.577C198.494 410.577 196.433 409.709 193.327 406.618C190.221 403.526 188.745 401.422 188.745 401.422Z" fill="#464646"/>
<circle cx="83.9251" cy="239.381" r="44.8931" fill="#262626"/>
<ellipse cx="81.4244" cy="236.892" rx="44.4656" ry="40.8904" transform="rotate(-45.1351 81.4244 236.892)" fill="#353535"/>
<path d="M46.7975 263.322L107.691 202.141C107.691 202.141 110.565 204.366 112.542 206.333C114.518 208.301 116.892 211.846 116.892 211.846C93.2167 235.633 80.2214 248.69 56.5462 272.477C56.5462 272.477 54.4856 271.61 51.3793 268.518C48.273 265.426 46.7975 263.322 46.7975 263.322Z" fill="#464646"/>
<circle cx="225.873" cy="239.381" r="44.8931" fill="#262626"/>
<ellipse cx="223.372" cy="236.892" rx="44.4656" ry="40.8904" transform="rotate(-45.1351 223.372 236.892)" fill="#353535"/>
<path d="M188.745 263.322L249.639 202.141C249.639 202.141 252.513 204.366 254.489 206.333C256.466 208.301 258.84 211.846 258.84 211.846C235.165 235.633 222.169 248.69 198.494 272.477C198.494 272.477 196.433 271.61 193.327 268.518C190.221 265.426 188.745 263.322 188.745 263.322Z" fill="#464646"/>
<circle cx="83.9251" cy="101.281" r="44.8931" fill="#262626"/>
<ellipse cx="81.4244" cy="98.792" rx="44.4656" ry="40.8904" transform="rotate(-45.1351 81.4244 98.792)" fill="#353535"/>
<path d="M46.7975 125.222L107.691 64.041C107.691 64.041 110.565 66.2659 112.542 68.2333C114.518 70.2008 116.892 73.7464 116.892 73.7464C93.2167 97.5335 80.2214 110.59 56.5462 134.377C56.5462 134.377 54.4856 133.51 51.3793 130.418C48.273 127.326 46.7975 125.222 46.7975 125.222Z" fill="#464646"/>
<circle cx="225.873" cy="101.281" r="44.8931" fill="#262626"/>
<ellipse cx="223.372" cy="98.792" rx="44.4656" ry="40.8904" transform="rotate(-45.1351 223.372 98.792)" fill="#353535"/>
<path d="M188.745 125.222L249.639 64.041C249.639 64.041 252.513 66.2659 254.489 68.2333C256.466 70.2008 258.84 73.7464 258.84 73.7464C235.165 97.5335 222.169 110.59 198.494 134.377C198.494 134.377 196.433 133.51 193.327 130.418C190.221 127.326 188.745 125.222 188.745 125.222Z" fill="#464646"/>
<circle cx="87.7081" cy="105.064" r="50.5174" fill="#010101" fill-opacity="0.22"/>
<circle cx="83.3692" cy="101.345" r="50.5174" fill="white" fill-opacity="0.2"/>
<circle cx="83.3692" cy="101.345" r="49.5174" stroke="black" stroke-opacity="0.39" stroke-width="2"/>
<circle cx="230.273" cy="105.064" r="50.5174" fill="#010101" fill-opacity="0.22"/>
<circle cx="225.934" cy="101.345" r="50.5174" fill="white" fill-opacity="0.2"/>
<circle cx="225.934" cy="101.345" r="49.5174" stroke="black" stroke-opacity="0.39" stroke-width="2"/>
<circle cx="87.7081" cy="242.669" r="50.5174" fill="#010101" fill-opacity="0.22"/>
<circle cx="83.3692" cy="238.95" r="50.5174" fill="white" fill-opacity="0.2"/>
<circle cx="83.3692" cy="238.95" r="49.5174" stroke="black" stroke-opacity="0.39" stroke-width="2"/>
<circle cx="230.273" cy="242.669" r="50.5174" fill="#010101" fill-opacity="0.22"/>
<circle cx="225.934" cy="238.95" r="50.5174" fill="white" fill-opacity="0.2"/>
<circle cx="225.934" cy="238.95" r="49.5174" stroke="black" stroke-opacity="0.39" stroke-width="2"/>
<circle cx="87.7081" cy="380.275" r="50.5174" fill="#010101" fill-opacity="0.22"/>
<circle cx="83.3692" cy="376.556" r="50.5174" fill="white" fill-opacity="0.2"/>
<circle cx="83.3692" cy="376.556" r="49.5174" stroke="black" stroke-opacity="0.39" stroke-width="2"/>
<circle cx="230.273" cy="380.275" r="50.5174" fill="#010101" fill-opacity="0.22"/>
<circle cx="225.934" cy="376.556" r="50.5174" fill="white" fill-opacity="0.2"/>
<circle cx="225.934" cy="376.556" r="49.5174" stroke="black" stroke-opacity="0.39" stroke-width="2"/>
</svg>
