<svg width="275" height="485" viewBox="0 0 275 485" fill="none" xmlns="http://www.w3.org/2000/svg">
<path d="M198 34.3023C198 31.8779 199.965 29.9125 202.39 29.9125V29.9125C204.814 29.9125 206.78 31.8779 206.78 34.3023V72.1102C206.78 74.5346 204.814 76.5 202.39 76.5V76.5C199.965 76.5 198 74.5347 198 72.1102V34.3023Z" fill="#635952"/>
<rect x="12.2462" y="213.234" width="251.507" height="227.163" fill="#635952"/>
<path d="M263.754 439.36C263.754 464.566 207.452 485 138 485C68.5481 485 12.2462 464.566 12.2462 439.36C12.2462 414.154 68.5481 393.72 138 393.72C207.452 393.72 263.754 414.154 263.754 439.36Z" fill="#635952"/>
<ellipse cx="138" cy="213.234" rx="125.754" ry="45.64" fill="#635952"/>
<path d="M138 78.3886L256.645 203.639H19.3545L138 78.3886Z" fill="#635952"/>
<rect x="89.9478" y="77.3514" width="96.1045" height="66.3855" fill="#635952"/>
<ellipse cx="138.373" cy="87.1501" rx="64.7835" ry="20.3525" fill="#635952"/>
<rect x="73.5896" y="69.0533" width="129.843" height="17.6337" fill="#635952"/>
<ellipse cx="135.624" cy="84.4414" rx="71.6236" ry="16.7549" fill="#635952"/>
<rect x="64" y="75.775" width="143.247" height="8.08858" fill="#635952"/>
<ellipse cx="135.624" cy="75.1974" rx="71.6236" ry="16.7549" fill="#635952"/>
<ellipse cx="133.018" cy="72.8719" rx="69.1966" ry="14.4294" fill="#635952"/>
<rect x="63.8215" y="21.0328" width="138.393" height="51.3047" fill="#635952"/>
<ellipse cx="133.018" cy="21.5672" rx="69.1966" ry="14.4294" fill="#635952"/>
<ellipse cx="133.324" cy="19.9493" rx="58.1796" ry="9.63408" fill="#635952"/>
<rect x="75.1449" y="14.9661" width="116.359" height="4.65093" fill="#635952"/>
<ellipse cx="133.324" cy="14.6341" rx="58.1796" ry="9.63408" fill="#635952"/>
<rect x="11" y="214" width="246" height="219" fill="#A68164"/>
<path d="M257 432C257 456.301 201.931 476 134 476C66.069 476 11 456.301 11 432C11 407.699 66.069 388 134 388C201.931 388 257 407.699 257 432Z" fill="#A68164"/>
<ellipse cx="134" cy="214" rx="123" ry="44" fill="#A68164"/>
<path d="M134 84L250.047 204.75H17.9526L134 84Z" fill="#A68164"/>
<rect x="87" y="83" width="94" height="64" fill="#A68164"/>
<path d="M11 286L11.5 290L13 293.5L15.5 297L18.5 300L24 304.5L31 308.5L38.5 312L46.5 315L55 317.5L63 319.5L72 321.5L80 323L90 324.5L98 325.5L115.5 326.5L133 327H150.5L168 325.5L177 324.5L185 323.5L196 321.5L203 320L211.5 318L219.5 315.5L228 312.5L236 309L240 307L244 304.5L248 301.5L251 299L254 295.5L255.5 292.5L256.5 290L257 287.5V286V390H11V286Z" fill="#F4F2EF"/>
<ellipse cx="134" cy="390.5" rx="123" ry="40.5" fill="#F4F2EF"/>
<path d="M11 213L11.5 217L13 220.5L15.5 224L18.5 227L24 231.5L31 235.5L38.5 239L46.5 242L55 244.5L63 246.5L72 248.5L80 250L90 251.5L98 252.5L115.5 253.5L133 254H150.5L168 252.5L177 251.5L185 250.5L196 248.5L203 247L211.5 245L219.5 242.5L228 239.5L236 236L240 234L244 231.5L248 228.5L251 226L254 222.5L255.5 219.5L256.5 217L257 214.5V213V317H11V213Z" fill="#F4F2EF"/>
<ellipse cx="134" cy="317.5" rx="123" ry="40.5" fill="#F4F2EF"/>
<ellipse cx="134.365" cy="92.4466" rx="63.3649" ry="19.6212" fill="#675D5C"/>
<rect x="71" y="75" width="127" height="17" fill="#675D5C"/>
<path d="M197.73 74.6212C197.73 85.4577 169.36 94.2424 134.365 94.2424C99.3694 94.2424 71 85.4577 71 74.6212C71 63.7847 99.3694 55 134.365 55C169.36 55 197.73 63.7847 197.73 74.6212Z" fill="#3E3B3B"/>
<ellipse cx="134" cy="82.4426" rx="74" ry="17.3879" fill="#3E3B3B"/>
<rect x="60" y="73.4488" width="148" height="8.39416" fill="#454141"/>
<ellipse cx="134" cy="72.8493" rx="74" ry="17.3879" fill="#575454"/>
<ellipse cx="134" cy="70.4359" rx="68.983" ry="14.9746" fill="#454141"/>
<rect x="65.017" y="16.6384" width="137.966" height="53.2429" fill="#454141"/>
<ellipse cx="134" cy="17.193" rx="68.983" ry="14.9746" fill="#4E4A4A"/>
<ellipse cx="134.305" cy="15.5142" rx="58" ry="9.99804" fill="#3E3B3B"/>
<rect x="76.3052" y="10.3426" width="116" height="4.82664" fill="#454141"/>
<ellipse cx="134.305" cy="9.99804" rx="58" ry="9.99804" fill="#575454"/>
<rect x="62.5084" y="28.8399" width="8.77966" height="46.5876" rx="4.38983" fill="#3E3B3B"/>
<rect x="142.78" y="42.1507" width="8.77966" height="46.5876" rx="4.38983" fill="#3E3B3B"/>
<rect x="156.576" y="41.0414" width="8.77966" height="46.5876" rx="4.38983" fill="#3E3B3B"/>
<rect x="170.373" y="38.823" width="8.77966" height="46.5876" rx="4.38983" fill="#3E3B3B"/>
<rect x="184.17" y="35.4952" width="8.77966" height="46.5876" rx="4.38983" fill="#3E3B3B"/>
<rect x="197.966" y="31.0584" width="8.77966" height="46.5876" rx="4.38983" fill="#3E3B3B"/>
<rect x="128.983" y="42.1507" width="8.77966" height="46.5876" rx="4.38983" fill="#3E3B3B"/>
<rect x="115.186" y="42.1507" width="8.77966" height="46.5876" rx="4.38983" fill="#3E3B3B"/>
<rect x="101.39" y="41.0414" width="8.77966" height="46.5876" rx="4.38983" fill="#3E3B3B"/>
<rect x="87.5933" y="38.823" width="8.77966" height="46.5876" rx="4.38983" fill="#3E3B3B"/>
<rect x="73.7965" y="35.4952" width="8.77966" height="46.5876" rx="4.38983" fill="#3E3B3B"/>
<path d="M196 232L203.5 230.5L211.5 229L218.5 227.141L226.5 225.681L235 223.247L243 220.814L247.5 219.354L251 217.879L254.5 215.939L257 214V434L256 438L254 442L251 445.5L248 448.5L245 451L240.5 454L236.5 456.5L231 459L225.5 461.5L220 463.5L215.5 465L210.5 466.5L204.5 468L200.5 468.939L196 470V232Z" fill="black" fill-opacity="0.1"/>
<path d="M29 220.989L27 220.533L24.5 219.848L21.5 218.935L18.5 218.022L15.041 216.545L13 215.283L11 213V433V434L12 437.5L13 440L14.5 442.5L16 444.5L17 445.608L20.5 449L22.5 450.5L25 452.5L29 454.906V220.989Z" fill="black" fill-opacity="0.04"/>
<path d="M77 240.855V232.003L83.5 233.996L91.5 235.493L100.5 236.491L109.5 237.489L120.5 237.988H132H143.5L153.5 237.489L163.5 236.99L171.5 235.992L180 234.994L188 233.5L196 232V470.012L188.5 471.509L179.5 473.006L171.5 474.004L161 475.002L151.5 475.501L140.5 476H129.5L115 475.501L103 474.503L92.5 473.505L83 472.008L77 471.01V240.855Z" fill="black" fill-opacity="0.05"/>
<path d="M163 107.32L164.967 107.127L167.066 106.934L168.902 106.694L171 106.506L173.23 106.192L175.328 105.878L176.508 105.69L177.426 105.5L178.344 105.25L179 105V133.359L178.5 134L175.5 135.5L173 136.5L169.5 137.5L165.5 138.5L163.5 139L163 107.32Z" fill="black" fill-opacity="0.1"/>
<path d="M95 105.024L94.2222 104.965L93.25 104.878L92.0833 104.761L90.9167 104.644L89.5715 104.454L88.7778 104.293L88 104V132.193V132.321L88.3889 132.769L88.7778 133.09L89.3611 133.41L89.9444 133.666L90.3333 133.808L91.6944 134.243L92.4722 134.435L93.4444 134.692L95 135V105.024Z" fill="black" fill-opacity="0.04"/>
<path d="M104 109.125V108L107.223 108.254L111.189 108.444L115.651 108.571L120.113 108.697L125.567 108.761H131.269H136.971L141.929 108.697L146.887 108.634L150.853 108.507L155.067 108.38L159.034 108.191L163 107.5L163.5 139L156.5 140.5L154 141L147.5 141.5L138.5 142H131.5H124L116.5 141.5L110 140.5L103.5 139.5L104 109.125Z" fill="black" fill-opacity="0.05"/>
<path d="M164 141.5L167.97 140.563L172.848 139.176L177.227 137.288L180.625 135.384L216.868 173.89L234.101 191.407L237.569 193.435L242.028 195.974L247.503 200.497L250 203L252.024 206.478L253.5 209.5L254.5 212.5L251.5 214.5L248.5 216L238.5 219.5L229 222L218.5 224.5L208.5 227L197.5 228.5L164 141.5Z" fill="black" fill-opacity="0.07"/>
<path d="M102.843 141.872L108.373 142.86L115.915 143.845L124.968 144.325L134.021 144.305L145.086 144.281L155.146 143.758L164 141.5L182.57 189.438L197.5 228.5L185.13 231.264L177.582 232.782L169.03 233.801L160.478 234.322L151.424 234.841L141.364 235.364L131.305 235.386L121.246 235.408L112.194 234.928L103.143 233.947L94.0916 232.966L84.5399 230.985L77 229L102.843 141.872Z" fill="black" fill-opacity="0.05"/>
<path d="M94 137L90.5001 136L87.8578 134.631L51.4172 172.951L34.5001 190.5L31.5001 192.5L26.0001 195.5L21.5001 199L18.0001 202.5L14.5001 207.5L13.9694 211.5L16.5007 213.999L22.0007 216.499L29.0007 218.499L94 137Z" fill="black" fill-opacity="0.03"/>
<g filter="url(#filter0_i)">
<path d="M93.684 347.108L90.444 347C88.764 347 87.18 347.096 85.692 347.288C85.548 347.096 85.476 346.892 85.476 346.676L85.548 346.388C86.58 346.148 87.276 345.776 87.636 345.272C87.9 344.888 88.104 344.432 88.248 343.904C88.392 343.352 88.464 341.792 88.464 339.224V335.768C88.464 334.28 88.392 333.248 88.248 332.672C88.128 332.096 87.936 331.712 87.672 331.52C87.408 331.328 87.06 331.208 86.628 331.16L85.296 331.052C85.224 330.956 85.188 330.8 85.188 330.584L85.296 330.116C86.544 329.852 87.552 329.588 88.32 329.324C89.112 329.036 90.036 328.628 91.092 328.1C91.356 328.1 91.536 328.244 91.632 328.532C91.344 330.164 91.2 334.052 91.2 340.196C91.2 341.3 91.236 342.524 91.308 343.868C91.404 345.188 91.524 345.86 91.668 345.884C92.028 345.956 92.7 345.992 93.684 345.992C93.756 346.16 93.792 346.352 93.792 346.568C93.792 346.784 93.756 346.964 93.684 347.108ZM90.3 323.996C89.436 323.396 88.824 322.604 88.464 321.62C88.752 321.284 89.136 320.936 89.616 320.576C90.12 320.192 90.552 319.928 90.912 319.784C91.824 320.456 92.412 321.26 92.676 322.196C92.004 323.06 91.212 323.66 90.3 323.996ZM115.19 338.216C115.19 343.544 112.094 346.712 105.902 347.72C103.358 347.72 101.21 346.82 99.4578 345.02C97.7298 343.196 96.8658 340.928 96.8658 338.216C96.8658 332.84 99.9738 329.66 106.19 328.676C108.71 328.676 110.834 329.6 112.562 331.448C114.314 333.296 115.19 335.552 115.19 338.216ZM106.694 346.172C110.15 346.172 111.878 343.964 111.878 339.548C111.878 337.052 111.302 334.868 110.15 332.996C108.998 331.124 107.474 330.188 105.578 330.188C103.682 330.188 102.302 330.8 101.438 332.024C100.598 333.224 100.178 334.952 100.178 337.208C100.178 339.44 100.766 341.492 101.942 343.364C103.118 345.236 104.702 346.172 106.694 346.172ZM134.445 338.036C134.445 341.228 134.505 343.112 134.625 343.688C134.817 344.768 135.309 345.308 136.101 345.308C136.389 345.308 136.821 345.296 137.397 345.272C137.493 345.44 137.541 345.644 137.541 345.884L137.505 346.244C135.873 346.532 134.673 346.928 133.905 347.432L133.473 347.72C133.113 347.72 132.693 347.384 132.213 346.712C131.733 346.04 131.493 345.284 131.493 344.444C129.621 345.644 127.389 346.736 124.797 347.72C123.045 347.36 121.485 346.28 120.117 344.48C118.749 342.656 118.065 340.556 118.065 338.18C118.065 336.644 118.365 335.276 118.965 334.076C119.565 332.852 120.273 331.928 121.089 331.304C121.905 330.656 122.793 330.116 123.753 329.684C125.241 329.012 126.453 328.676 127.389 328.676C127.485 328.676 128.877 328.868 131.565 329.252V322.7C131.565 320.516 131.313 319.184 130.809 318.704C130.545 318.44 130.197 318.284 129.765 318.236L128.469 318.092C128.373 317.9 128.325 317.756 128.325 317.66L128.469 317.192C129.501 317 130.497 316.748 131.457 316.436C132.417 316.076 133.461 315.524 134.589 314.78C134.877 314.78 135.069 314.9 135.165 315.14C134.685 316.964 134.445 324.596 134.445 338.036ZM121.089 336.812C121.089 338.996 121.641 340.94 122.745 342.644C123.873 344.324 125.121 345.164 126.489 345.164C127.881 345.164 129.573 344.42 131.565 342.932V332.6C131.565 331.928 130.749 331.364 129.117 330.908C127.485 330.428 126.345 330.188 125.697 330.188C124.689 330.188 123.669 330.884 122.637 332.276C121.605 333.644 121.089 335.156 121.089 336.812ZM148.036 347.108L144.796 347C143.116 347 141.532 347.096 140.044 347.288C139.9 347.096 139.828 346.892 139.828 346.676L139.9 346.388C140.932 346.148 141.628 345.776 141.988 345.272C142.252 344.888 142.456 344.432 142.6 343.904C142.744 343.352 142.816 341.792 142.816 339.224V335.768C142.816 334.28 142.744 333.248 142.6 332.672C142.48 332.096 142.288 331.712 142.024 331.52C141.76 331.328 141.412 331.208 140.98 331.16L139.648 331.052C139.576 330.956 139.54 330.8 139.54 330.584L139.648 330.116C140.896 329.852 141.904 329.588 142.672 329.324C143.464 329.036 144.388 328.628 145.444 328.1C145.708 328.1 145.888 328.244 145.984 328.532C145.696 330.164 145.552 334.052 145.552 340.196C145.552 341.3 145.588 342.524 145.66 343.868C145.756 345.188 145.876 345.86 146.02 345.884C146.38 345.956 147.052 345.992 148.036 345.992C148.108 346.16 148.144 346.352 148.144 346.568C148.144 346.784 148.108 346.964 148.036 347.108ZM144.652 323.996C143.788 323.396 143.176 322.604 142.816 321.62C143.104 321.284 143.488 320.936 143.968 320.576C144.472 320.192 144.904 319.928 145.264 319.784C146.176 320.456 146.764 321.26 147.028 322.196C146.356 323.06 145.564 323.66 144.652 323.996ZM152.225 330.836L150.821 330.872C150.725 330.752 150.677 330.596 150.677 330.404C150.677 330.212 150.701 330.044 150.749 329.9C152.381 329.684 153.713 329.348 154.745 328.892C155.081 328.748 155.285 328.676 155.357 328.676C155.573 328.676 155.837 329.012 156.149 329.684C156.461 330.356 156.725 331.1 156.941 331.916C159.365 330.548 161.729 329.468 164.033 328.676C165.497 328.676 166.625 329.264 167.417 330.44C168.209 331.592 168.605 333.128 168.605 335.048L168.533 339.8C168.533 343.808 168.713 345.848 169.073 345.92C169.433 345.968 170.105 345.992 171.089 345.992C171.185 346.16 171.233 346.34 171.233 346.532C171.233 346.724 171.185 346.916 171.089 347.108L167.777 347C165.785 347 164.201 347.096 163.025 347.288C162.905 347.144 162.845 346.94 162.845 346.676L162.881 346.388C163.577 346.22 164.117 345.992 164.501 345.704C164.885 345.392 165.125 345.104 165.221 344.84C165.341 344.552 165.437 344.132 165.509 343.58C165.581 343.004 165.617 341.9 165.617 340.268V337.28C165.617 335.6 165.425 334.184 165.041 333.032C164.873 332.576 164.681 332.24 164.465 332.024C163.937 331.448 163.301 331.16 162.557 331.16C161.813 331.16 161.069 331.304 160.325 331.592C159.581 331.88 159.017 332.144 158.633 332.384C158.249 332.624 157.709 332.984 157.013 333.464C156.917 335.36 156.869 337.904 156.869 341.096C156.869 344.264 157.025 345.872 157.337 345.92C157.673 345.968 158.285 345.992 159.173 345.992C159.269 346.16 159.317 346.34 159.317 346.532C159.317 346.724 159.269 346.916 159.173 347.108L156.113 347C154.289 347 152.705 347.096 151.361 347.288C151.241 347.144 151.181 346.94 151.181 346.676L151.217 346.388C151.913 346.22 152.453 345.992 152.837 345.704C153.221 345.392 153.461 345.104 153.557 344.84C153.677 344.552 153.773 344.036 153.845 343.292C153.941 342.524 153.989 340.892 153.989 338.396C153.989 335.9 153.977 334.52 153.953 334.256C153.953 333.968 153.941 333.608 153.917 333.176C153.893 332.744 153.845 332.42 153.773 332.204C153.701 331.988 153.593 331.76 153.449 331.52C153.209 331.064 152.801 330.836 152.225 330.836ZM183.288 345.128C185.256 345.128 186.996 344.6 188.508 343.544C188.844 343.664 189.036 343.916 189.084 344.3L185.196 347.036C184.62 347.492 183.336 347.72 181.344 347.72C179.352 347.72 177.66 346.832 176.268 345.056C174.876 343.256 174.18 340.988 174.18 338.252C174.18 335.516 174.936 333.356 176.448 331.772C177.96 330.188 179.76 329.156 181.848 328.676C183.672 328.676 185.28 329.288 186.672 330.512C187.512 331.232 188.1 332.168 188.436 333.32C188.508 333.608 188.844 333.764 189.444 333.788C189.588 333.956 189.66 334.136 189.66 334.328C189.66 334.496 189.636 334.676 189.588 334.868C185.364 335.852 181.212 336.536 177.132 336.92C177.132 339.992 177.984 342.296 179.688 343.832C180.648 344.696 181.848 345.128 183.288 345.128ZM185.556 334.148C185.676 334.076 185.736 333.992 185.736 333.896C185.736 333.776 185.58 333.44 185.268 332.888C184.98 332.312 184.464 331.712 183.72 331.088C182.976 330.44 182.196 330.116 181.38 330.116C180.564 330.116 179.964 330.236 179.58 330.476C178.236 331.388 177.468 333.044 177.276 335.444C178.572 335.444 180.048 335.312 181.704 335.048C183.36 334.76 184.644 334.46 185.556 334.148Z" fill="black"/>
</g>
<defs>
<filter id="filter0_i" x="85.188" y="314.78" width="104.472" height="36.94" filterUnits="userSpaceOnUse" color-interpolation-filters="sRGB">
<feFlood flood-opacity="0" result="BackgroundImageFix"/>
<feBlend mode="normal" in="SourceGraphic" in2="BackgroundImageFix" result="shape"/>
<feColorMatrix in="SourceAlpha" type="matrix" values="0 0 0 0 0 0 0 0 0 0 0 0 0 0 0 0 0 0 127 0" result="hardAlpha"/>
<feOffset dy="4"/>
<feGaussianBlur stdDeviation="2"/>
<feComposite in2="hardAlpha" operator="arithmetic" k2="-1" k3="1"/>
<feColorMatrix type="matrix" values="0 0 0 0 0 0 0 0 0 0 0 0 0 0 0 0 0 0 0.25 0"/>
<feBlend mode="normal" in2="shape" result="effect1_innerShadow"/>
</filter>
</defs>
</svg>
