<svg width="313" height="481" viewBox="0 0 313 481" fill="none" xmlns="http://www.w3.org/2000/svg">
<rect x="10.5374" y="4.95874" width="301.865" height="476.041" rx="100" fill="#8B8F95"/>
<rect width="304.344" height="474.182" rx="100" fill="#E1DBDB"/>
<circle cx="87.7081" cy="242.669" r="50.5174" fill="#010101" fill-opacity="0.22"/>
<ellipse cx="83.8507" cy="239.704" rx="44.8934" ry="44.892" fill="#D4BA8A"/>
<ellipse rx="44.4651" ry="40.89" transform="matrix(0.705449 -0.708761 0.708783 0.705426 81.35 236.36)" fill="#E7D4AF"/>
<path d="M46.723 262.79L107.617 201.61C107.617 201.61 110.491 203.835 112.468 205.802C114.444 207.77 116.818 211.315 116.818 211.315C93.1426 235.102 80.1471 248.158 56.4718 271.944C56.4718 271.944 54.4112 271.077 51.3049 267.985C48.1986 264.894 46.723 262.79 46.723 262.79Z" fill="#E9DDC7"/>
<circle cx="83.3692" cy="238.95" r="50.5174" fill="white" fill-opacity="0.2"/>
<circle cx="83.3692" cy="238.95" r="49.5174" stroke="black" stroke-opacity="0.39" stroke-width="2"/>
<circle cx="87.7081" cy="380.275" r="50.5174" fill="#010101" fill-opacity="0.22"/>
<ellipse cx="83.8507" cy="377.704" rx="44.8934" ry="44.892" fill="#D4BA8A"/>
<ellipse rx="44.4651" ry="40.89" transform="matrix(0.705449 -0.708761 0.708783 0.705426 81.35 374.36)" fill="#E7D4AF"/>
<path d="M46.723 400.79L107.617 339.61C107.617 339.61 110.491 341.835 112.468 343.802C114.444 345.77 116.818 349.315 116.818 349.315C93.1426 373.102 80.1471 386.158 56.4718 409.944C56.4718 409.944 54.4112 409.077 51.3049 405.985C48.1986 402.894 46.723 400.79 46.723 400.79Z" fill="#E9DDC7"/>
<circle cx="83.3692" cy="376.556" r="50.5174" fill="white" fill-opacity="0.2"/>
<circle cx="83.3692" cy="376.556" r="49.5174" stroke="black" stroke-opacity="0.39" stroke-width="2"/>
<circle cx="227.708" cy="242.669" r="50.5174" fill="#010101" fill-opacity="0.22"/>
<ellipse cx="223.851" cy="239.704" rx="44.8934" ry="44.892" fill="#D4BA8A"/>
<ellipse rx="44.4651" ry="40.89" transform="matrix(0.705449 -0.708761 0.708783 0.705426 221.35 236.36)" fill="#E7D4AF"/>
<path d="M186.723 262.79L247.617 201.61C247.617 201.61 250.491 203.835 252.468 205.802C254.444 207.77 256.818 211.315 256.818 211.315C233.143 235.102 220.147 248.158 196.472 271.944C196.472 271.944 194.411 271.077 191.305 267.985C188.199 264.894 186.723 262.79 186.723 262.79Z" fill="#E9DDC7"/>
<circle cx="223.369" cy="238.95" r="50.5174" fill="white" fill-opacity="0.2"/>
<circle cx="223.369" cy="238.95" r="49.5174" stroke="black" stroke-opacity="0.39" stroke-width="2"/>
<circle cx="227.708" cy="380.275" r="50.5174" fill="#010101" fill-opacity="0.22"/>
<ellipse cx="223.851" cy="377.704" rx="44.8934" ry="44.892" fill="#D4BA8A"/>
<ellipse rx="44.4651" ry="40.89" transform="matrix(0.705449 -0.708761 0.708783 0.705426 221.35 374.36)" fill="#E7D4AF"/>
<path d="M186.723 400.79L247.617 339.61C247.617 339.61 250.491 341.835 252.468 343.802C254.444 345.77 256.818 349.315 256.818 349.315C233.143 373.102 220.147 386.158 196.472 409.944C196.472 409.944 194.411 409.077 191.305 405.985C188.199 402.894 186.723 400.79 186.723 400.79Z" fill="#E9DDC7"/>
<circle cx="223.369" cy="376.556" r="50.5174" fill="white" fill-opacity="0.2"/>
<circle cx="223.369" cy="376.556" r="49.5174" stroke="black" stroke-opacity="0.39" stroke-width="2"/>
<circle cx="87.7081" cy="107.669" r="50.5174" fill="#010101" fill-opacity="0.22"/>
<ellipse cx="83.8507" cy="104.704" rx="44.8934" ry="44.892" fill="#D4BA8A"/>
<ellipse rx="44.4651" ry="40.89" transform="matrix(0.705449 -0.708761 0.708783 0.705426 81.35 101.36)" fill="#E7D4AF"/>
<path d="M46.723 127.79L107.617 66.6099C107.617 66.6099 110.491 68.8348 112.468 70.8022C114.444 72.7696 116.818 76.3151 116.818 76.3151C93.1426 100.102 80.1471 113.158 56.4718 136.944C56.4718 136.944 54.4112 136.077 51.3049 132.985C48.1986 129.894 46.723 127.79 46.723 127.79Z" fill="#E9DDC7"/>
<circle cx="83.3692" cy="103.95" r="50.5174" fill="white" fill-opacity="0.2"/>
<circle cx="83.3692" cy="103.95" r="49.5174" stroke="black" stroke-opacity="0.39" stroke-width="2"/>
<circle cx="227.708" cy="107.669" r="50.5174" fill="#010101" fill-opacity="0.22"/>
<ellipse cx="223.851" cy="104.704" rx="44.8934" ry="44.892" fill="#D4BA8A"/>
<ellipse rx="44.4651" ry="40.89" transform="matrix(0.705449 -0.708761 0.708783 0.705426 221.35 101.36)" fill="#E7D4AF"/>
<path d="M186.723 127.79L247.617 66.6099C247.617 66.6099 250.491 68.8348 252.468 70.8022C254.444 72.7696 256.818 76.3151 256.818 76.3151C233.143 100.102 220.147 113.158 196.472 136.944C196.472 136.944 194.411 136.077 191.305 132.985C188.199 129.894 186.723 127.79 186.723 127.79Z" fill="#E9DDC7"/>
<circle cx="223.369" cy="103.95" r="50.5174" fill="white" fill-opacity="0.2"/>
<circle cx="223.369" cy="103.95" r="49.5174" stroke="black" stroke-opacity="0.39" stroke-width="2"/>
</svg>
