<svg width="137" height="391" viewBox="0 0 137 391" fill="none" xmlns="http://www.w3.org/2000/svg">
<rect x="3" y="3" width="134" height="388" rx="67" fill="#DCAD81"/>
<rect width="128" height="384" rx="64" fill="#EDC59F"/>
<rect x="16" y="129" width="83" height="119" rx="41.5" fill="#F1DCC9"/>
<rect x="29" y="135" width="83" height="120" rx="41.5" fill="#DCAD81"/>
<rect x="22" y="134" width="83" height="116" rx="41.5" fill="#EFD0B3"/>
<circle cx="74" cy="174" r="3" transform="rotate(90 74 174)" fill="#F1DCC9"/>
<circle cx="64" cy="73" r="3" fill="#F1DCC9"/>
<circle cx="53" cy="210" r="3" transform="rotate(90 53 210)" fill="#F1DCC9"/>
<circle cx="53" cy="192" r="3" transform="rotate(90 53 192)" fill="#F1DCC9"/>
<circle cx="53" cy="174" r="3" transform="rotate(90 53 174)" fill="#F1DCC9"/>
<circle cx="63" cy="202" r="3" transform="rotate(90 63 202)" fill="#F1DCC9"/>
<circle cx="63" cy="183" r="3" transform="rotate(90 63 183)" fill="#F1DCC9"/>
<circle cx="74" cy="210" r="3" transform="rotate(90 74 210)" fill="#F1DCC9"/>
<circle cx="74" cy="192" r="3" transform="rotate(90 74 192)" fill="#F1DCC9"/>
<circle cx="46" cy="31" r="3" fill="#F1DCC9"/>
<circle cx="82" cy="52" r="3" fill="#F1DCC9"/>
<circle cx="64" cy="52" r="3" fill="#F1DCC9"/>
<circle cx="46" cy="52" r="3" fill="#F1DCC9"/>
<circle cx="74" cy="42" r="3" fill="#F1DCC9"/>
<circle cx="55" cy="42" r="3" fill="#F1DCC9"/>
<circle cx="82" cy="31" r="3" fill="#F1DCC9"/>
<circle cx="64" cy="31" r="3" fill="#F1DCC9"/>
<circle cx="74" cy="62" r="3" fill="#F1DCC9"/>
<circle cx="110" cy="83" r="3" fill="#F1DCC9"/>
<circle cx="92" cy="83" r="3" fill="#F1DCC9"/>
<circle cx="74" cy="83" r="3" fill="#F1DCC9"/>
<circle cx="102" cy="73" r="3" fill="#F1DCC9"/>
<circle cx="83" cy="73" r="3" fill="#F1DCC9"/>
<circle cx="110" cy="62" r="3" fill="#F1DCC9"/>
<circle cx="92" cy="62" r="3" fill="#F1DCC9"/>
<circle cx="46" cy="93" r="3" fill="#F1DCC9"/>
<circle cx="82" cy="114" r="3" fill="#F1DCC9"/>
<circle cx="64" cy="114" r="3" fill="#F1DCC9"/>
<circle cx="46" cy="114" r="3" fill="#F1DCC9"/>
<circle cx="74" cy="104" r="3" fill="#F1DCC9"/>
<circle cx="55" cy="104" r="3" fill="#F1DCC9"/>
<circle cx="82" cy="93" r="3" fill="#F1DCC9"/>
<circle cx="64" cy="93" r="3" fill="#F1DCC9"/>
<circle cx="19" cy="62" r="3" fill="#F1DCC9"/>
<circle cx="55" cy="83" r="3" fill="#F1DCC9"/>
<circle cx="37" cy="83" r="3" fill="#F1DCC9"/>
<circle cx="19" cy="83" r="3" fill="#F1DCC9"/>
<circle cx="47" cy="73" r="3" fill="#F1DCC9"/>
<circle cx="28" cy="73" r="3" fill="#F1DCC9"/>
<circle cx="55" cy="62" r="3" fill="#F1DCC9"/>
<circle cx="37" cy="62" r="3" fill="#F1DCC9"/>
<circle cx="63" cy="312" r="3" fill="#F1DCC9"/>
<circle cx="45" cy="270" r="3" fill="#F1DCC9"/>
<circle cx="81" cy="291" r="3" fill="#F1DCC9"/>
<circle cx="63" cy="291" r="3" fill="#F1DCC9"/>
<circle cx="45" cy="291" r="3" fill="#F1DCC9"/>
<circle cx="73" cy="281" r="3" fill="#F1DCC9"/>
<circle cx="54" cy="281" r="3" fill="#F1DCC9"/>
<circle cx="81" cy="270" r="3" fill="#F1DCC9"/>
<circle cx="63" cy="270" r="3" fill="#F1DCC9"/>
<circle cx="73" cy="301" r="3" fill="#F1DCC9"/>
<circle cx="109" cy="322" r="3" fill="#F1DCC9"/>
<circle cx="91" cy="322" r="3" fill="#F1DCC9"/>
<circle cx="73" cy="322" r="3" fill="#F1DCC9"/>
<circle cx="101" cy="312" r="3" fill="#F1DCC9"/>
<circle cx="82" cy="312" r="3" fill="#F1DCC9"/>
<circle cx="109" cy="301" r="3" fill="#F1DCC9"/>
<circle cx="91" cy="301" r="3" fill="#F1DCC9"/>
<circle cx="45" cy="332" r="3" fill="#F1DCC9"/>
<circle cx="81" cy="353" r="3" fill="#F1DCC9"/>
<circle cx="63" cy="353" r="3" fill="#F1DCC9"/>
<circle cx="45" cy="353" r="3" fill="#F1DCC9"/>
<circle cx="73" cy="343" r="3" fill="#F1DCC9"/>
<circle cx="54" cy="343" r="3" fill="#F1DCC9"/>
<circle cx="81" cy="332" r="3" fill="#F1DCC9"/>
<circle cx="63" cy="332" r="3" fill="#F1DCC9"/>
<circle cx="18" cy="301" r="3" fill="#F1DCC9"/>
<circle cx="54" cy="322" r="3" fill="#F1DCC9"/>
<circle cx="36" cy="322" r="3" fill="#F1DCC9"/>
<circle cx="18" cy="322" r="3" fill="#F1DCC9"/>
<circle cx="46" cy="312" r="3" fill="#F1DCC9"/>
<circle cx="27" cy="312" r="3" fill="#F1DCC9"/>
<circle cx="54" cy="301" r="3" fill="#F1DCC9"/>
<circle cx="36" cy="301" r="3" fill="#F1DCC9"/>
</svg>
