<svg width="203" height="209" viewBox="0 0 203 209" fill="none" xmlns="http://www.w3.org/2000/svg">
<rect x="8" y="5" width="195" height="204" rx="73" fill="#DCAD81"/>
<rect width="194" height="202" rx="73" fill="#EDC59F"/>
<rect x="49" y="57" width="83" height="84" rx="41.5" fill="#F1DCC9"/>
<rect x="62" y="61" width="83" height="85" rx="41.5" fill="#DCAD81"/>
<rect x="55" y="59" width="84" height="85" rx="42" fill="#EFD0B3"/>
<ellipse cx="107" cy="93" rx="3" ry="3" transform="rotate(90 107 93)" fill="#F1DCC9"/>
<ellipse cx="86" cy="110" rx="3" ry="3" transform="rotate(90 86 110)" fill="#F1DCC9"/>
<ellipse cx="86" cy="93" rx="3" ry="3" transform="rotate(90 86 93)" fill="#F1DCC9"/>
<ellipse cx="97" cy="102" rx="3" ry="3" transform="rotate(90 97 102)" fill="#F1DCC9"/>
<ellipse cx="107" cy="110" rx="3" ry="3" transform="rotate(90 107 110)" fill="#F1DCC9"/>
<circle cx="79" cy="163" r="3" fill="#F1DCC9"/>
<circle cx="115" cy="184" r="3" fill="#F1DCC9"/>
<circle cx="97" cy="184" r="3" fill="#F1DCC9"/>
<circle cx="79" cy="184" r="3" fill="#F1DCC9"/>
<circle cx="107" cy="174" r="3" fill="#F1DCC9"/>
<circle cx="88" cy="174" r="3" fill="#F1DCC9"/>
<circle cx="115" cy="163" r="3" fill="#F1DCC9"/>
<circle cx="97" cy="163" r="3" fill="#F1DCC9"/>
<circle cx="180" cy="83" r="3" transform="rotate(90 180 83)" fill="#F1DCC9"/>
<circle cx="159" cy="119" r="3" transform="rotate(90 159 119)" fill="#F1DCC9"/>
<circle cx="159" cy="101" r="3" transform="rotate(90 159 101)" fill="#F1DCC9"/>
<circle cx="159" cy="83" r="3" transform="rotate(90 159 83)" fill="#F1DCC9"/>
<circle cx="169" cy="111" r="3" transform="rotate(90 169 111)" fill="#F1DCC9"/>
<circle cx="169" cy="92" r="3" transform="rotate(90 169 92)" fill="#F1DCC9"/>
<circle cx="180" cy="119" r="3" transform="rotate(90 180 119)" fill="#F1DCC9"/>
<circle cx="180" cy="101" r="3" transform="rotate(90 180 101)" fill="#F1DCC9"/>
<circle cx="35" cy="83" r="3" transform="rotate(90 35 83)" fill="#F1DCC9"/>
<circle cx="14" cy="119" r="3" transform="rotate(90 14 119)" fill="#F1DCC9"/>
<circle cx="14" cy="101" r="3" transform="rotate(90 14 101)" fill="#F1DCC9"/>
<circle cx="14" cy="83" r="3" transform="rotate(90 14 83)" fill="#F1DCC9"/>
<circle cx="24" cy="111" r="3" transform="rotate(90 24 111)" fill="#F1DCC9"/>
<circle cx="24" cy="92" r="3" transform="rotate(90 24 92)" fill="#F1DCC9"/>
<circle cx="35" cy="119" r="3" transform="rotate(90 35 119)" fill="#F1DCC9"/>
<circle cx="35" cy="101" r="3" transform="rotate(90 35 101)" fill="#F1DCC9"/>
<circle cx="79" cy="19" r="3" fill="#F1DCC9"/>
<circle cx="115" cy="40" r="3" fill="#F1DCC9"/>
<circle cx="97" cy="40" r="3" fill="#F1DCC9"/>
<circle cx="79" cy="40" r="3" fill="#F1DCC9"/>
<circle cx="107" cy="30" r="3" fill="#F1DCC9"/>
<circle cx="88" cy="30" r="3" fill="#F1DCC9"/>
<circle cx="115" cy="19" r="3" fill="#F1DCC9"/>
<circle cx="97" cy="19" r="3" fill="#F1DCC9"/>
</svg>
