<svg width="553" height="206" viewBox="0 0 553 206" fill="none" xmlns="http://www.w3.org/2000/svg">
<g clip-path="url(#clip0)">
<path d="M285.4 68.0001L311.7 66.3001C312.3 70.6001 313.4 73.8001 315.2 76.1001C318.1 79.7001 322.1 81.5001 327.4 81.5001C331.3 81.5001 334.4 80.6001 336.5 78.7001C338.5 77.2001 339.7 74.8001 339.7 72.3001C339.7 69.9001 338.6 67.6001 336.7 66.1001C334.7 64.3001 330 62.5001 322.6 60.9001C310.5 58.2001 301.8 54.6001 296.7 50.0001C291.6 45.7001 288.7 39.4001 288.9 32.7001C288.9 28.1001 290.3 23.5001 292.9 19.7001C295.9 15.4001 300 12.0001 304.9 10.1001C310.2 7.8001 317.6 6.6001 326.9 6.6001C338.3 6.6001 347 8.7001 353 13.0001C359 17.2001 362.6 24.0001 363.7 33.3001L337.7 34.8001C337 30.8001 335.6 27.9001 333.3 26.0001C331 24.1001 328 23.2001 324.1 23.2001C320.9 23.2001 318.5 23.9001 316.9 25.2001C315.4 26.4001 314.4 28.2001 314.5 30.2001C314.5 31.7001 315.3 33.1001 316.5 34.0001C317.8 35.2001 320.9 36.3001 325.8 37.3001C337.9 39.9001 346.5 42.5001 351.8 45.2001C357.1 47.9001 360.9 51.2001 363.2 55.1001C365.6 59.1001 366.8 63.7001 366.7 68.4001C366.7 74.0001 365.1 79.6001 361.9 84.3001C358.6 89.2001 354 93.0001 348.6 95.3001C342.9 97.8001 335.7 99.1001 327.1 99.1001C311.9 99.1001 301.4 96.2001 295.5 90.3001C289.6 84.4001 286.1 77.0001 285.4 68.0001ZM6.3 97.6001V8.2001H52.4C60.9 8.2001 67.5 8.9001 72 10.4001C76.4 11.8001 80.3 14.7001 82.9 18.6001C85.8 22.9001 87.2 27.9001 87.1 33.1001C87.4 41.9001 82.9 50.3001 75.2 54.7001C72.2 56.4001 68.9 57.6001 65.5 58.2001C68 58.9001 70.5 60.1001 72.7 61.5001C74.4 62.9001 75.8 64.5001 77.1 66.2001C78.6 67.9001 79.9 69.8001 81 71.8001L94.4 97.7001H63L48.2 70.2001C46.3 66.7001 44.7 64.4001 43.2 63.3001C41.2 61.9001 38.8 61.2001 36.4 61.2001H34V97.5001H6.3V97.6001ZM34 44.4001H45.7C48.2 44.2001 50.6 43.8001 53 43.2001C54.8 42.9001 56.4 41.9001 57.5 40.4001C60.2 36.8001 59.8 31.7001 56.5 28.6001C54.7 27.1001 51.2 26.3001 46.2 26.3001H34V44.4001ZM0 174.2L26.3 172.5C26.9 176.8 28 180 29.8 182.3C32.6 185.9 36.7 187.8 42 187.8C45.9 187.8 49 186.9 51.1 185C53.1 183.4 54.3 181.1 54.3 178.6C54.3 176.2 53.2 173.9 51.3 172.4C49.3 170.6 44.6 168.8 37.1 167.2C25 164.5 16.3 160.9 11.2 156.3C6.1 152 3.2 145.7 3.4 139C3.4 134.4 4.8 129.8 7.4 126C10.4 121.7 14.5 118.3 19.4 116.4C24.7 114.1 32.1 112.9 41.4 112.9C52.8 112.9 61.5 115 67.5 119.3C73.5 123.6 77 130.3 78.1 139.6L52.1 141.1C51.4 137.1 50 134.2 47.7 132.3C45.5 130.4 42.4 129.5 38.5 129.6C35.3 129.6 32.9 130.3 31.3 131.7C29.7 132.9 28.8 134.7 28.9 136.7C28.9 138.2 29.7 139.6 30.9 140.5C32.2 141.7 35.3 142.8 40.2 143.8C52.3 146.4 60.9 149 66.2 151.7C71.5 154.4 75.3 157.7 77.6 161.6C80 165.6 81.2 170.2 81.2 174.8C81.2 180.4 79.5 185.9 76.4 190.6C73.1 195.5 68.5 199.3 63.1 201.6C57.4 204.1 50.2 205.4 41.6 205.4C26.4 205.4 15.9 202.5 10 196.6C4.1 190.6 0.8 183.2 0 174.2H0Z" fill="#6D829A"/>
<path d="M133 167.2L157.2 174.5C155.9 180.6 153.2 186.4 149.5 191.5C146.1 196 141.6 199.5 136.5 201.8C131.3 204.1 124.7 205.3 116.7 205.3C107 205.3 99 203.9 92.9 201.1C86.7 198.3 81.4 193.3 76.9 186.2C72.4 179.1 70.2 170 70.2 158.9C70.2 144.1 74.1 132.7 82 124.8C89.9 116.9 101 112.9 115.4 112.9C126.7 112.9 135.5 115.2 142 119.7C148.4 124.3 153.2 131.3 156.4 140.7L132 146.1C131.4 144 130.5 141.9 129.3 140.1C127.8 138 125.9 136.4 123.6 135.2C121.3 134 118.7 133.5 116.1 133.5C109.8 133.5 105 136 101.7 141.1C99.2 144.8 97.9 150.7 97.9 158.7C97.9 168.6 99.4 175.4 102.4 179.1C105.4 182.8 109.6 184.6 115.1 184.6C120.4 184.6 124.4 183.1 127.1 180.2C129.8 177.1 131.8 172.8 133 167.2ZM189.5 114.4H217.1V145.7H247.3V114.4H275.1V203.8H247.3V167.6H217.1V203.8H189.5V114.4V114.4Z" fill="#6D829A"/>
<path d="M271.3 159.1C271.3 144.5 275.4 133.1 283.5 125C291.6 116.9 303 112.8 317.5 112.8C332.4 112.8 343.8 116.8 351.9 124.8C360 132.8 364 144 364 158.4C364 168.9 362.2 177.4 358.7 184.1C355.3 190.7 350 196.1 343.5 199.7C336.8 203.4 328.5 205.3 318.6 205.3C308.5 205.3 300.2 203.7 293.6 200.5C286.8 197.1 281.2 191.8 277.5 185.3C273.4 178.3 271.3 169.6 271.3 159.1ZM298.9 159.2C298.9 168.2 300.6 174.7 303.9 178.7C307.2 182.6 311.8 184.6 317.6 184.6C323.5 184.6 328.1 182.7 331.4 178.8C334.7 174.9 336.3 168 336.3 158C336.3 149.6 334.6 143.4 331.2 139.6C327.8 135.7 323.2 133.8 317.4 133.8C312.3 133.6 307.4 135.8 304 139.7C300.6 143.6 298.9 150.1 298.9 159.2V159.2ZM392.3 159.1C392.3 144.5 396.4 133.1 404.5 125C412.6 116.9 424 112.8 438.5 112.8C453.4 112.8 464.9 116.8 472.9 124.8C480.9 132.8 485 144 485 158.4C485 168.9 483.2 177.4 479.7 184.1C476.3 190.7 471 196.1 464.5 199.7C457.8 203.4 449.5 205.3 439.6 205.3C429.5 205.3 421.2 203.7 414.6 200.5C407.8 197.1 402.2 191.8 398.5 185.3C394.4 178.3 392.3 169.6 392.3 159.1V159.1ZM419.9 159.2C419.9 168.2 421.6 174.7 424.9 178.7C428.2 182.6 432.8 184.6 438.6 184.6C444.5 184.6 449.1 182.7 452.4 178.8C455.7 174.9 457.3 168 457.3 158C457.3 149.6 455.6 143.4 452.2 139.6C448.8 135.7 444.2 133.8 438.4 133.8C433.3 133.6 428.3 135.8 425 139.7C421.6 143.6 419.9 150.1 419.9 159.2V159.2Z" fill="#6D829A"/>
<path d="M482.1 114.4H509.7V181.8H552.8V203.8H482V114.4H482.1Z" fill="#6D829A"/>
<path d="M472.937 22.768C491.299 47.1334 482.324 85.2572 452.321 107.867C422.317 130.478 383.196 128.597 364.835 104.232C346.474 79.8664 355.448 41.7426 385.452 19.1323C415.455 -3.47792 454.576 -1.59744 472.937 22.768Z" stroke="#6D829A" stroke-width="2"/>
<path d="M389 56.8L399 49.8L411.3 67.3C413.4 70.1 415 73.1 416.2 76.4C416.9 78.9 416.7 81.6 415.7 84C414.4 87 412.3 89.5 409.5 91.3C406.2 93.6 403.4 94.9 401 95.3C398.7 95.7 396.3 95.3 394.1 94.3C391.7 93.1 389.6 91.4 388 89.2L396.6 81.2C397.3 82.3 398.2 83.3 399.2 84.1C399.9 84.6 400.7 84.9 401.6 84.9C402.3 84.9 403 84.6 403.5 84.2C404.5 83.6 405.2 82.4 405.1 81.2C404.8 79.5 404.1 77.8 403 76.5L389 56.8V56.8ZM419 67.9L428.1 60.7C429.1 61.9 430.4 62.8 431.8 63.3C433.8 63.9 435.9 63.5 437.6 62.2C438.8 61.4 439.8 60.3 440.2 58.9C440.8 57.1 439.8 55.1 438 54.5C437.7 54.4 437.4 54.3 437.1 54.3C435.9 54.2 433.8 54.7 430.7 56C425.6 58.1 421.6 58.9 418.6 58.6C415.7 58.3 413 56.8 411.4 54.3C410.2 52.6 409.6 50.6 409.5 48.6C409.5 46.3 410.1 44 411.4 42.1C413.3 39.4 415.6 37.1 418.4 35.3C422.6 32.4 426.3 31 429.5 31C432.7 31 435.7 32.5 438.5 35.6L429.5 42.7C427.7 40.4 424.3 39.9 422 41.7L421.7 42C420.7 42.6 420 43.5 419.6 44.6C419.3 45.4 419.5 46.3 420 47C420.4 47.5 421 47.9 421.7 47.9C422.5 48 423.9 47.6 425.9 46.7C430.9 44.6 434.7 43.4 437.3 43C439.5 42.6 441.8 42.8 443.9 43.7C445.8 44.5 447.4 45.9 448.5 47.6C449.9 49.6 450.7 52 450.8 54.5C450.9 57.1 450.2 59.6 448.8 61.8C447 64.5 444.7 66.8 442 68.6C436.5 72.4 432 74 428.4 73.4C424.5 72.8 421.3 70.8 419 67.9V67.9Z" fill="#6D829A"/>
</g>
<defs>
<clipPath id="clip0">
<rect width="552.8" height="205.3" fill="white"/>
</clipPath>
</defs>
</svg>
