<svg width="4017" height="2029" viewBox="0 0 4017 2029" fill="none" xmlns="http://www.w3.org/2000/svg">
<path d="M175.024 982.989C183.09 934.803 224.794 899.5 273.651 899.5H3712.21C3760.02 899.5 3801.14 933.336 3810.34 980.248L3992.6 1909.25C4004.72 1971.03 3957.43 2028.5 3894.47 2028.5H118.132C56.3091 2028.5 9.29702 1972.96 19.5045 1911.99L175.024 982.989Z" fill="#0E1C2D" fill-opacity="0.2"/>
<path d="M502.686 1764.07C481.169 1760.41 468.215 1738.16 475.651 1717.64L603.162 1365.79C608.716 1350.47 624.116 1341 640.299 1342.97L816.531 1364.43C838.87 1367.16 852.873 1389.95 845.206 1411.1L714.785 1770.98C709.018 1786.9 692.692 1796.4 676.008 1793.56L502.686 1764.07Z" fill="#97A1B4"/>
<path d="M230.541 1604.71C226.652 1583.23 243.155 1563.47 264.981 1563.47H639.223C655.525 1563.47 669.668 1574.73 673.329 1590.61L713.197 1763.61C718.251 1785.54 701.595 1806.47 679.091 1806.47H296.306C279.382 1806.47 264.882 1794.36 261.866 1777.71L230.541 1604.71Z" fill="#A6B0C3"/>
<path d="M3482.63 1764.33C3503.86 1760.27 3516.73 1737.83 3509.58 1717.33L3386.98 1365.72C3381.56 1350.19 3366.17 1340.79 3349.97 1343.13L3163.9 1370.03C3141.9 1373.21 3128.04 1396.19 3135.39 1417.29L3260.85 1777.09C3266.46 1793.18 3282.74 1802.6 3299.41 1799.41L3482.63 1764.33Z" fill="#97A1B4"/>
<path d="M3745.07 1604.71C3748.96 1583.23 3732.45 1563.47 3710.63 1563.47H3336.39C3320.08 1563.47 3305.94 1574.73 3302.28 1590.61L3262.41 1763.61C3257.36 1785.54 3274.01 1806.47 3296.52 1806.47H3679.3C3696.23 1806.47 3710.73 1794.36 3713.74 1777.71L3745.07 1604.71Z" fill="#A6B0C3"/>
<path d="M175.098 612.959C183.165 564.773 224.869 529.47 273.725 529.47H3712.29C3760.09 529.47 3801.21 563.306 3810.42 610.218L3992.68 1539.22C4004.8 1601 3957.5 1658.47 3894.55 1658.47H118.207C56.3835 1658.47 9.37146 1602.93 19.5789 1541.96L175.098 612.959Z" fill="#BDC3CE"/>
<path d="M175.024 517.489C183.09 469.303 224.794 434 273.651 434H3712.21C3760.02 434 3801.14 467.836 3810.34 514.748L3992.6 1443.75C4004.72 1505.53 3957.43 1563 3894.47 1563H118.132C56.3091 1563 9.29702 1507.46 19.5045 1446.49L175.024 517.489Z" fill="#D3D9E3"/>
<path d="M92.5718 1010.97L1597.57 434.472L2166.07 434.472L70.0743 1145.47L92.5718 1010.97Z" fill="white" fill-opacity="0.18"/>
<path d="M3295.07 434.47L1241.57 1563.51L325.074 1563.51L2939.07 434.47L3295.07 434.47Z" fill="white" fill-opacity="0.18"/>
</svg>
