<svg width="138" height="647" viewBox="0 0 138 647" fill="none" xmlns="http://www.w3.org/2000/svg">
<rect x="43" y="18.6937" width="62" height="99.6127" fill="#8B8F95"/>
<ellipse cx="74" cy="18.8019" rx="31" ry="11.8019" fill="#8B8F95"/>
<ellipse cx="74" cy="118.198" rx="31" ry="11.8019" fill="#8B8F95"/>
<rect x="10" y="133" width="128" height="460" fill="#8B8F95"/>
<ellipse cx="74" cy="133.5" rx="64" ry="54.5" fill="#8B8F95"/>
<ellipse cx="74" cy="592.5" rx="64" ry="54.5" fill="#8B8F95"/>
<rect x="33" y="11.6937" width="62" height="99.6127" fill="#D8DEE7"/>
<ellipse cx="64" cy="11.8019" rx="31" ry="11.8019" fill="#D8DEE7"/>
<ellipse cx="64" cy="111.198" rx="31" ry="11.8019" fill="#D8DEE7"/>
<rect y="126" width="128" height="460" fill="#D8DEE7"/>
<ellipse cx="64" cy="126.5" rx="64" ry="54.5" fill="#D8DEE7"/>
<ellipse cx="64" cy="585.5" rx="64" ry="54.5" fill="#D8DEE7"/>
<rect x="14" y="134.908" width="100" height="442.183" fill="#F4F1F1"/>
<ellipse cx="64" cy="135.389" rx="50" ry="52.3891" fill="#F4F1F1"/>
<ellipse cx="64" cy="576.611" rx="50" ry="52.3891" fill="#F4F1F1"/>
<rect x="53" y="78.5211" width="21" height="472.958" fill="#AD0000"/>
<ellipse cx="63.5" cy="79.0352" rx="10.5" ry="56.0352" fill="#AD0000"/>
<ellipse cx="63.5" cy="550.965" rx="10.5" ry="56.0352" fill="#AD0000"/>
<circle cx="63.5" cy="40.5" r="20.5" fill="#AD0000"/>
<line y1="-0.5" x2="8.4" y2="-0.5" transform="matrix(-1 0 0 1 42 162)" stroke="black"/>
<line y1="-0.5" x2="8.4" y2="-0.5" transform="matrix(-1 0 0 1 42 175)" stroke="black"/>
<line y1="-0.5" x2="8.4" y2="-0.5" transform="matrix(-1 0 0 1 42 187)" stroke="black"/>
<line y1="-0.5" x2="8.4" y2="-0.5" transform="matrix(-1 0 0 1 42 199)" stroke="black"/>
<line y1="-0.5" x2="8.4" y2="-0.5" transform="matrix(-1 0 0 1 42 220)" stroke="black"/>
<line y1="-0.5" x2="8.4" y2="-0.5" transform="matrix(-1 0 0 1 42 233)" stroke="black"/>
<line y1="-0.5" x2="8.4" y2="-0.5" transform="matrix(-1 0 0 1 42 245)" stroke="black"/>
<line y1="-0.5" x2="8.4" y2="-0.5" transform="matrix(-1 0 0 1 42 257)" stroke="black"/>
<line y1="-0.5" x2="18" y2="-0.5" transform="matrix(-1 0 0 1 42 209)" stroke="black"/>
<line y1="-0.5" x2="18" y2="-0.5" transform="matrix(-1 0 0 1 42 268)" stroke="black"/>
<line y1="-0.5" x2="8.4" y2="-0.5" transform="matrix(-1 0 0 1 42 397)" stroke="black"/>
<line y1="-0.5" x2="8.4" y2="-0.5" transform="matrix(-1 0 0 1 42 410)" stroke="black"/>
<line y1="-0.5" x2="8.4" y2="-0.5" transform="matrix(-1 0 0 1 42 422)" stroke="black"/>
<line y1="-0.5" x2="8.4" y2="-0.5" transform="matrix(-1 0 0 1 42 434)" stroke="black"/>
<line y1="-0.5" x2="8.4" y2="-0.5" transform="matrix(-1 0 0 1 42 455)" stroke="black"/>
<line y1="-0.5" x2="8.4" y2="-0.5" transform="matrix(-1 0 0 1 42 468)" stroke="black"/>
<line y1="-0.5" x2="8.4" y2="-0.5" transform="matrix(-1 0 0 1 42 480)" stroke="black"/>
<line y1="-0.5" x2="8.4" y2="-0.5" transform="matrix(-1 0 0 1 42 492)" stroke="black"/>
<line y1="-0.5" x2="18" y2="-0.5" transform="matrix(-1 0 0 1 42 444)" stroke="black"/>
<line y1="-0.5" x2="18" y2="-0.5" transform="matrix(-1 0 0 1 42 503)" stroke="black"/>
<line y1="-0.5" x2="8.4" y2="-0.5" transform="matrix(-1 0 0 1 42 280)" stroke="black"/>
<line y1="-0.5" x2="8.4" y2="-0.5" transform="matrix(-1 0 0 1 42 293)" stroke="black"/>
<line y1="-0.5" x2="8.4" y2="-0.5" transform="matrix(-1 0 0 1 42 305)" stroke="black"/>
<line y1="-0.5" x2="8.4" y2="-0.5" transform="matrix(-1 0 0 1 42 317)" stroke="black"/>
<line y1="-0.5" x2="8.4" y2="-0.5" transform="matrix(-1 0 0 1 42 338)" stroke="black"/>
<line y1="-0.5" x2="8.4" y2="-0.5" transform="matrix(-1 0 0 1 42 351)" stroke="black"/>
<line y1="-0.5" x2="8.4" y2="-0.5" transform="matrix(-1 0 0 1 42 363)" stroke="black"/>
<line y1="-0.5" x2="8.4" y2="-0.5" transform="matrix(-1 0 0 1 42 375)" stroke="black"/>
<line y1="-0.5" x2="18" y2="-0.5" transform="matrix(-1 0 0 1 42 327)" stroke="black"/>
<line y1="-0.5" x2="18" y2="-0.5" transform="matrix(-1 0 0 1 42 386)" stroke="black"/>
<line x1="87" y1="161.5" x2="95.4" y2="161.5" stroke="black"/>
<line x1="87" y1="174.5" x2="95.4" y2="174.5" stroke="black"/>
<line x1="87" y1="186.5" x2="95.4" y2="186.5" stroke="black"/>
<line x1="87" y1="198.5" x2="95.4" y2="198.5" stroke="black"/>
<line x1="87" y1="219.5" x2="95.4" y2="219.5" stroke="black"/>
<line x1="87" y1="232.5" x2="95.4" y2="232.5" stroke="black"/>
<line x1="87" y1="244.5" x2="95.4" y2="244.5" stroke="black"/>
<line x1="87" y1="256.5" x2="95.4" y2="256.5" stroke="black"/>
<line x1="87" y1="208.5" x2="105" y2="208.5" stroke="black"/>
<line x1="87" y1="267.5" x2="105" y2="267.5" stroke="black"/>
<line x1="87" y1="396.5" x2="95.4" y2="396.5" stroke="black"/>
<line x1="87" y1="409.5" x2="95.4" y2="409.5" stroke="black"/>
<line x1="87" y1="421.5" x2="95.4" y2="421.5" stroke="black"/>
<line x1="87" y1="433.5" x2="95.4" y2="433.5" stroke="black"/>
<line x1="87" y1="454.5" x2="95.4" y2="454.5" stroke="black"/>
<line x1="87" y1="467.5" x2="95.4" y2="467.5" stroke="black"/>
<line x1="87" y1="479.5" x2="95.4" y2="479.5" stroke="black"/>
<line x1="87" y1="491.5" x2="95.4" y2="491.5" stroke="black"/>
<line x1="87" y1="443.5" x2="105" y2="443.5" stroke="black"/>
<line x1="87" y1="502.5" x2="105" y2="502.5" stroke="black"/>
<line x1="87" y1="279.5" x2="95.4" y2="279.5" stroke="black"/>
<line x1="87" y1="292.5" x2="95.4" y2="292.5" stroke="black"/>
<line x1="87" y1="304.5" x2="95.4" y2="304.5" stroke="black"/>
<line x1="87" y1="316.5" x2="95.4" y2="316.5" stroke="black"/>
<line x1="87" y1="337.5" x2="95.4" y2="337.5" stroke="black"/>
<line x1="87" y1="350.5" x2="95.4" y2="350.5" stroke="black"/>
<line x1="87" y1="362.5" x2="95.4" y2="362.5" stroke="black"/>
<line x1="87" y1="374.5" x2="95.4" y2="374.5" stroke="black"/>
<line x1="87" y1="326.5" x2="105" y2="326.5" stroke="black"/>
<line x1="87" y1="385.5" x2="105" y2="385.5" stroke="black"/>
</svg>
